# xmcd
#
# Track frame offsets: 
#        150
#        11320
#        38100
#        74642
#        98910
#        112115
#        121187
#        134675
#        145200
#        170650
#        199425
#        214790
#        245900
#        275190
#        302965
#        312962
#
# Disc length: 4422 seconds
#
# Revision: 4
# Processed by: cddbd v1.5.2PL0 Copyright (c) Steve Scherf et al.
# Submitted via: ExactAudioCopy v0.99pb5
#
DISCID=05114410
DTITLE=J.S. Bach - Orgelwerke (Edward Power Biggs)
DYEAR=1960
DGENRE=Orgel
TTITLE0=Toccata and Fugue in D minor, BWV 565: a. Toccata
TTITLE1=Toccata and Fugue in D minor, BWV 565: b. Fuga
TTITLE2=Passacaglia and Fugue in C minor, BWV 582: a. Passcaglia
TTITLE3=Passacaglia and Fugue in C minor, BWV 582: b. Fuga
TTITLE4=Pastorale in F major, BWV 590: a. Pastorale
TTITLE5=Pastorale in F major, BWV 590: b. Allegro
TTITLE6=Pastorale in F major, BWV 590: c. Adagio
TTITLE7=Pastorale in F major, BWV 590: d. Allegro vivace
TTITLE8=Fantasia and Fugue in G minor, BWV 542:  a. Praeludium
TTITLE9=Fantasia and Fugue in G minor, BWV 542:  b. Fuga
TTITLE10=Prelude and Fugue in A minor, BWV 543: a. Praeludium
TTITLE11=Prelude and Fugue in A minor, BWV 543: b. Fuga
TTITLE12=Prelude and Fugue in B minor, BWV 544: a. Praeludium
TTITLE13=Prelude and Fugue in B minor, BWV 544: b. Fuga
TTITLE14=Prelude and Fugue in C major, BWV 545: a. Praeludium
TTITLE15=Prelude and Fugue in C major, BWV 545: b. Fuga
EXTD=ntial Classics\nSony, 1991
EXTT0=
EXTT1=
EXTT2=
EXTT3=
EXTT4=
EXTT5=
EXTT6=
EXTT7=
EXTT8=
EXTT9=
EXTT10=
EXTT11=
EXTT12=
EXTT13=
EXTT14=
EXTT15=
PLAYORDER=
